<?xml version="1.0" encoding="UTF-8"?>
<!DOCTYPE svg PUBLIC "-//W3C//DTD SVG 1.1//EN" "http://www.w3.org/Graphics/SVG/1.1/DTD/svg11.dtd">
<svg xmlns="http://www.w3.org/2000/svg" version="1.1" width="56px" height="56px" style="shape-rendering:geometricPrecision; text-rendering:geometricPrecision; image-rendering:optimizeQuality; fill-rule:evenodd; clip-rule:evenodd" xmlns:xlink="http://www.w3.org/1999/xlink">
<g><path style="opacity:1" fill="#3643ba" d="M -0.5,-0.5 C 18.1667,-0.5 36.8333,-0.5 55.5,-0.5C 55.5,18.1667 55.5,36.8333 55.5,55.5C 36.8333,55.5 18.1667,55.5 -0.5,55.5C -0.5,36.8333 -0.5,18.1667 -0.5,-0.5 Z"/></g>
<g><path style="opacity:1" fill="#f2f3fa" d="M 30.5,20.5 C 31.4896,26.31 31.8229,32.31 31.5,38.5C 26.4608,42.1482 20.7942,43.3149 14.5,42C 11.0662,40.4707 9.39957,37.804 9.5,34C 10.2563,28.8209 12.5896,24.4876 16.5,21C 21.7274,16.1365 27.894,13.3032 35,12.5C 41.0083,11.7968 44.5083,14.2968 45.5,20C 44.4257,26.3192 41.4257,31.4859 36.5,35.5C 35.359,33.5787 35.1923,31.5787 36,29.5C 38.6116,26.6114 40.4449,23.2781 41.5,19.5C 40.5638,15.8993 38.2305,14.2327 34.5,14.5C 24.9816,16.1933 17.8149,21.1933 13,29.5C 11.0972,35.6009 12.9306,37.4342 18.5,35C 23.3435,30.7808 27.3435,25.9475 30.5,20.5 Z"/></g>
<g><path style="opacity:1" fill="#a0a6de" d="M 31.5,38.5 C 31.8229,32.31 31.4896,26.31 30.5,20.5C 30.7828,19.7109 31.2828,19.0442 32,18.5C 32.8206,25.3464 32.654,32.013 31.5,38.5 Z"/></g>
</svg>
